<?xml version="1.0" standalone="no"?>
<!DOCTYPE svg PUBLIC "-//W3C//DTD SVG 20010904//EN"
 "http://www.w3.org/TR/2001/REC-SVG-20010904/DTD/svg10.dtd">
<svg version="1.0" xmlns="http://www.w3.org/2000/svg"
 width="64.000000pt" height="64.000000pt" viewBox="0 0 64.000000 64.000000"
 preserveAspectRatio="xMidYMid meet">

<g transform="translate(0.000000,64.000000) scale(0.100000,-0.100000)"
fill="#000000" stroke="none">
<path d="M0 486 c0 -114 3 -156 13 -160 10 -5 10 -7 0 -12 -10 -4 -13 -46 -13
-160 l0 -154 154 0 c114 0 156 3 160 13 5 9 7 9 12 0 4 -10 46 -13 160 -13
l154 0 0 154 c0 114 -3 156 -12 160 -10 5 -10 7 0 12 9 4 12 46 12 160 l0 154
-154 0 c-114 0 -156 -3 -160 -12 -5 -10 -7 -10 -12 0 -4 9 -46 12 -160 12
l-154 0 0 -154z m297 117 c-14 -4 -16 -8 -6 -19 6 -8 10 -16 8 -18 -2 -2 -12
7 -22 20 -18 24 -18 24 10 23 18 -1 22 -3 10 -6z m66 -17 c-10 -13 -20 -22
-22 -20 -2 2 2 10 8 18 10 11 8 15 -6 19 -12 3 -8 5 10 6 28 1 28 1 10 -23z
m-152 0 l24 5 -23 -11 c-13 -5 -27 -8 -31 -6 -4 3 -12 -4 -19 -14 -8 -14 -8
-19 2 -23 7 -3 16 -15 19 -26 3 -12 1 -19 -4 -15 -5 3 -9 12 -9 20 0 8 -9 14
-20 14 -25 0 -25 5 0 30 12 12 18 26 13 33 -5 9 -4 9 8 0 8 -7 26 -10 40 -7z
m264 4 c-3 -5 3 -18 15 -30 25 -25 25 -30 0 -30 -11 0 -20 -6 -20 -14 0 -8 -4
-17 -9 -20 -5 -4 -7 3 -4 15 3 11 12 23 19 26 10 4 10 9 2 23 -7 10 -15 17
-19 14 -4 -2 -18 1 -31 6 -22 10 -22 10 4 5 15 -3 30 -1 33 5 3 5 8 10 11 10
3 0 3 -4 -1 -10z m-235 -62 c0 -5 -8 -8 -17 -8 -14 0 -15 2 -4 9 9 6 10 11 2
15 -6 4 -11 12 -11 19 0 12 29 -23 30 -35z m181 18 c-9 -11 -9 -15 1 -19 8 -4
7 -6 -4 -6 -10 -1 -18 1 -18 4 0 10 24 44 29 40 2 -3 -1 -11 -8 -19z m-76 5
c14 -6 7 -8 -25 -8 -32 0 -39 2 -25 8 11 4 22 8 25 8 3 0 14 -4 25 -8z m-235
-61 c0 -11 6 -20 14 -20 8 0 17 -4 20 -9 4 -5 -3 -7 -15 -4 -11 3 -23 12 -26
19 -4 10 -9 10 -23 2 -10 -7 -17 -15 -14 -19 2 -4 -1 -18 -6 -31 l-11 -23 5
24 c3 14 0 32 -7 40 -9 12 -9 13 0 8 7 -5 20 1 30 12 23 25 33 26 33 1z m450
0 c12 -12 26 -18 33 -13 9 5 9 4 0 -8 -7 -8 -10 -26 -7 -40 l5 -24 -11 23 c-5
13 -8 27 -6 31 3 4 -4 12 -14 19 -14 8 -19 8 -23 -2 -3 -7 -15 -16 -26 -19
-12 -3 -19 -1 -15 4 3 5 12 9 20 9 8 0 14 9 14 20 0 25 5 25 30 0z m-464 -71
c4 -8 9 -7 15 2 7 11 9 10 9 -3 0 -10 -3 -18 -7 -18 -13 1 -48 30 -36 30 7 0
15 -5 19 -11z m448 0 c4 6 12 11 19 11 12 0 -23 -29 -35 -30 -5 0 -8 8 -8 18
0 13 2 14 9 3 6 -9 11 -10 15 -2z m-470 -78 c-2 -2 -10 2 -18 8 -11 10 -15 8
-19 -6 -3 -12 -5 -8 -6 10 -1 28 -1 28 23 10 13 -10 22 -20 20 -22z m535 12
c0 -24 -2 -25 -8 -9 -5 14 -10 16 -15 8 -4 -7 -12 -12 -18 -12 -8 0 30 38 40
40 1 0 2 -12 1 -27z m-512 -35 c0 -33 -2 -38 -8 -21 -6 18 -2 63 6 63 1 0 2
-19 2 -42z m454 -20 c-6 -18 -8 -13 -8 22 0 35 2 40 8 22 5 -12 5 -32 0 -44z
m-495 -7 c8 6 16 10 18 8 2 -2 -7 -12 -20 -22 -24 -18 -24 -18 -23 10 1 18 3
22 6 10 4 -14 8 -16 19 -6z m554 -6 c0 -26 0 -26 -24 -8 -13 10 -22 20 -20 22
2 2 10 -2 19 -9 12 -10 15 -10 15 4 0 9 2 16 5 16 3 0 5 -11 5 -25z m-490 -62
c0 -14 -2 -15 -9 -4 -6 9 -11 10 -15 2 -4 -6 -12 -11 -19 -11 -12 0 23 29 36
30 4 0 7 -8 7 -17z m434 2 c11 -8 15 -15 9 -15 -7 0 -15 5 -19 11 -4 8 -9 7
-15 -2 -7 -11 -9 -10 -9 4 0 21 9 21 34 2z m-488 -44 c-3 -4 4 -12 14 -19 14
-8 19 -8 23 2 3 7 15 16 26 19 12 3 19 1 15 -4 -3 -5 -12 -9 -20 -9 -8 0 -14
-9 -14 -20 0 -25 -5 -25 -30 0 -12 12 -26 18 -33 13 -9 -5 -9 -4 0 8 7 8 10
26 7 40 l-5 24 11 -23 c5 -13 8 -27 6 -31z m521 27 c-4 -12 -1 -29 6 -37 9
-12 9 -13 0 -8 -7 5 -21 -1 -33 -13 -25 -25 -30 -25 -30 0 0 11 -6 20 -14 20
-8 0 -18 4 -21 10 -9 14 28 0 40 -15 12 -15 39 1 41 23 3 35 5 42 10 42 4 0 4
-10 1 -22z m-404 -79 c-3 -11 -12 -23 -19 -26 -10 -4 -10 -9 -2 -23 7 -10 15
-17 19 -14 4 2 18 -1 31 -6 l23 -11 -24 5 c-14 3 -32 0 -40 -7 -12 -9 -13 -9
-8 0 5 7 -1 21 -13 33 -25 25 -25 30 -1 30 10 0 21 9 24 20 3 11 7 20 10 20 3
0 3 -9 0 -21z m287 -5 c0 -8 9 -14 20 -14 25 0 25 -5 0 -30 -12 -12 -18 -26
-13 -33 5 -9 4 -9 -8 0 -8 7 -26 10 -40 7 l-24 -5 23 11 c13 5 27 8 31 6 4 -3
12 4 19 14 8 14 8 19 -2 23 -7 3 -16 15 -19 26 -3 12 -1 19 4 15 5 -3 9 -12 9
-20z m-230 -11 c-1 -13 -30 -48 -30 -36 0 7 5 15 11 19 8 4 7 9 -2 15 -11 7
-10 9 4 9 9 0 17 -3 17 -7z m181 -2 c-9 -6 -10 -11 -2 -15 6 -4 11 -12 11 -19
0 -12 -29 23 -30 36 0 4 8 7 18 7 13 0 14 -2 3 -9z m-79 -22 c-12 -5 -32 -5
-44 0 -18 6 -13 8 22 8 35 0 40 -2 22 -8z m-51 -33 c-10 -11 -8 -15 6 -19 12
-3 8 -5 -10 -6 -28 -1 -28 -1 -10 23 10 13 20 22 22 20 2 -2 -2 -10 -8 -18z
m73 -3 l19 -23 -29 1 c-24 0 -26 2 -10 8 14 5 16 10 8 15 -7 4 -12 12 -12 18
0 6 1 9 3 7 1 -2 11 -14 21 -26z"/>
</g>
</svg>
